<svg width="38" height="38" viewBox="0 0 38 38" fill="none" xmlns="http://www.w3.org/2000/svg">
<path d="M18.7501 0.375C8.39603 0.375 0 8.76956 0 19.1251C0 27.4095 5.37246 34.4378 12.8225 36.9171C13.7595 37.0906 14.1036 36.5103 14.1036 36.0151C14.1036 35.568 14.0861 34.0909 14.0782 32.5242C8.86175 33.6584 7.76105 30.3119 7.76105 30.3119C6.90814 28.1446 5.67921 27.5684 5.67921 27.5684C3.97809 26.4047 5.80744 26.4285 5.80744 26.4285C7.69032 26.5608 8.68175 28.3608 8.68175 28.3608C10.354 31.2273 13.0681 30.3985 14.138 29.9195C14.3063 28.7075 14.7923 27.8805 15.3284 27.4123C11.1639 26.938 6.78579 25.3303 6.78579 18.1458C6.78579 16.0989 7.51826 14.4261 8.71778 13.1131C8.52308 12.6407 7.88134 10.7338 8.89939 8.15105C8.89939 8.15105 10.4739 7.6471 14.057 10.073C15.5525 9.65746 17.1566 9.44924 18.7501 9.44218C20.3435 9.44924 21.9488 9.65746 23.4473 10.073C27.0261 7.6471 28.5984 8.15105 28.5984 8.15105C29.619 10.7338 28.9769 12.6407 28.7822 13.1131C29.9844 14.4261 30.7119 16.0987 30.7119 18.1458C30.7119 25.3474 26.3255 26.9332 22.1504 27.3973C22.8229 27.9792 23.4221 29.1203 23.4221 30.8695C23.4221 33.3782 23.4004 35.3974 23.4004 36.0151C23.4004 36.514 23.7378 37.0987 24.6884 36.9146C32.1343 34.4325 37.5 27.4067 37.5 19.1251C37.5 8.76956 29.1051 0.375 18.7501 0.375Z" fill="#404040"/>
<path d="M7.0224 27.085C6.98122 27.1781 6.83446 27.2061 6.70109 27.1422C6.56506 27.0811 6.48859 26.954 6.53271 26.8605C6.57315 26.7646 6.71991 26.7378 6.85564 26.8023C6.99196 26.8633 7.0696 26.9915 7.0224 27.085ZM7.94472 27.908C7.85531 27.9909 7.68047 27.9524 7.56179 27.8213C7.43915 27.6906 7.41621 27.5159 7.50694 27.4316C7.59914 27.3489 7.7687 27.3875 7.89164 27.5184C8.01428 27.6506 8.0381 27.8243 7.94457 27.9081L7.94472 27.908ZM8.57749 28.9609C8.4625 29.0407 8.27456 28.9659 8.15854 28.7991C8.04369 28.6325 8.04369 28.4325 8.16104 28.3523C8.2775 28.2722 8.4625 28.3443 8.58014 28.5097C8.69484 28.6793 8.69484 28.8792 8.57735 28.961L8.57749 28.9609ZM9.64746 30.1804C9.54467 30.2936 9.32585 30.2633 9.16556 30.1086C9.00174 29.9574 8.95601 29.7429 9.0591 29.6295C9.16306 29.516 9.3832 29.5479 9.54467 29.7013C9.70746 29.8522 9.75716 30.0683 9.64761 30.1804H9.64746ZM11.0304 30.5921C10.9852 30.7389 10.7743 30.8056 10.562 30.7433C10.3499 30.679 10.2111 30.507 10.2539 30.3586C10.298 30.2108 10.5098 30.1413 10.7237 30.208C10.9355 30.272 11.0746 30.4427 11.0305 30.5921H11.0304ZM12.6044 30.7667C12.6097 30.9214 12.4296 31.0496 12.2066 31.0524C11.9824 31.0573 11.8011 30.9321 11.7987 30.7801C11.7987 30.6239 11.9747 30.4968 12.1988 30.4932C12.4218 30.4887 12.6044 30.613 12.6044 30.7667ZM14.1505 30.7074C14.1773 30.8583 14.0223 31.0133 13.801 31.0545C13.5834 31.0942 13.3819 31.0011 13.3541 30.8515C13.327 30.6968 13.485 30.542 13.7022 30.5018C13.9239 30.4633 14.1223 30.554 14.1505 30.7074Z" fill="#404040"/>
</svg>
