<svg width="38" height="38" viewBox="0 0 38 38" fill="none" xmlns="http://www.w3.org/2000/svg">
<g clip-path="url(#clip0_102_75)">
<path d="M18.75 3.37646C23.7598 3.37646 24.353 3.39844 26.3232 3.48633C28.1543 3.56689 29.1431 3.87451 29.8022 4.13086C30.6738 4.46777 31.3037 4.87793 31.9556 5.52979C32.6147 6.18896 33.0176 6.81152 33.3545 7.68311C33.6108 8.34229 33.9185 9.33838 33.999 11.1621C34.0869 13.1396 34.1089 13.7329 34.1089 18.7354C34.1089 23.7451 34.0869 24.3384 33.999 26.3086C33.9185 28.1397 33.6108 29.1284 33.3545 29.7876C33.0176 30.6592 32.6074 31.2891 31.9556 31.9409C31.2964 32.6001 30.6738 33.0029 29.8022 33.3398C29.1431 33.5962 28.147 33.9038 26.3232 33.9844C24.3457 34.0723 23.7524 34.0942 18.75 34.0942C13.7402 34.0942 13.147 34.0723 11.1768 33.9844C9.34571 33.9038 8.35693 33.5962 7.69775 33.3398C6.82617 33.0029 6.19629 32.5928 5.54443 31.9409C4.88525 31.2817 4.48242 30.6592 4.14551 29.7876C3.88916 29.1284 3.58154 28.1323 3.50098 26.3086C3.41309 24.3311 3.39111 23.7378 3.39111 18.7354C3.39111 13.7256 3.41309 13.1323 3.50098 11.1621C3.58154 9.33105 3.88916 8.34229 4.14551 7.68311C4.48242 6.81152 4.89258 6.18164 5.54443 5.52979C6.20361 4.87061 6.82617 4.46777 7.69775 4.13086C8.35693 3.87451 9.35303 3.56689 11.1768 3.48633C13.147 3.39844 13.7402 3.37646 18.75 3.37646ZM18.75 0C13.6597 0 13.0225 0.0219727 11.023 0.109863C9.03076 0.197754 7.66113 0.520019 6.47461 0.981445C5.23682 1.46484 4.18945 2.10205 3.14941 3.14941C2.10205 4.18945 1.46484 5.23682 0.981445 6.46729C0.52002 7.66113 0.197754 9.02344 0.109863 11.0156C0.0219727 13.0225 0 13.6597 0 18.75C0 23.8403 0.0219727 24.4775 0.109863 26.4771C0.197754 28.4692 0.52002 29.8389 0.981445 31.0254C1.46484 32.2632 2.10205 33.3105 3.14941 34.3506C4.18945 35.3906 5.23682 36.0352 6.46729 36.5112C7.66113 36.9727 9.02344 37.2949 11.0156 37.3828C13.0151 37.4707 13.6523 37.4927 18.7427 37.4927C23.833 37.4927 24.4702 37.4707 26.4697 37.3828C28.4619 37.2949 29.8315 36.9727 31.0181 36.5112C32.2485 36.0352 33.2959 35.3906 34.3359 34.3506C35.376 33.3105 36.0205 32.2632 36.4966 31.0327C36.958 29.8389 37.2803 28.4766 37.3682 26.4844C37.4561 24.4849 37.478 23.8477 37.478 18.7573C37.478 13.667 37.4561 13.0298 37.3682 11.0303C37.2803 9.03809 36.958 7.66846 36.4966 6.48193C36.0352 5.23682 35.398 4.18945 34.3506 3.14941C33.3106 2.10938 32.2632 1.46484 31.0327 0.98877C29.8389 0.527344 28.4766 0.205078 26.4844 0.117188C24.4775 0.0219727 23.8403 0 18.75 0Z" fill="#404040"/>
<path d="M18.75 9.11865C13.4326 9.11865 9.11865 13.4326 9.11865 18.75C9.11865 24.0674 13.4326 28.3813 18.75 28.3813C24.0674 28.3813 28.3813 24.0674 28.3813 18.75C28.3813 13.4326 24.0674 9.11865 18.75 9.11865ZM18.75 24.9976C15.3003 24.9976 12.5024 22.1997 12.5024 18.75C12.5024 15.3003 15.3003 12.5024 18.75 12.5024C22.1997 12.5024 24.9976 15.3003 24.9976 18.75C24.9976 22.1997 22.1997 24.9976 18.75 24.9976Z" fill="#404040"/>
<path d="M31.0107 8.7378C31.0107 9.98291 30 10.9863 28.7622 10.9863C27.5171 10.9863 26.5137 9.97559 26.5137 8.7378C26.5137 7.49268 27.5244 6.48926 28.7622 6.48926C30 6.48926 31.0107 7.5 31.0107 8.7378Z" fill="#404040"/>
</g>
<defs>
<clipPath id="clip0_102_75">
<rect width="37.5" height="37.5" fill="white"/>
</clipPath>
</defs>
</svg>
