<svg width="38" height="38" viewBox="0 0 38 38" fill="none" xmlns="http://www.w3.org/2000/svg">
<g clip-path="url(#clip0_102_73)">
<path d="M35.2241 0H3.26855C1.73779 0 0.5 1.2085 0.5 2.70264V34.79C0.5 36.2842 1.73779 37.5 3.26855 37.5H35.2241C36.7549 37.5 38 36.2842 38 34.7974V2.70264C38 1.2085 36.7549 0 35.2241 0ZM11.6255 31.9556H6.05908V14.0552H11.6255V31.9556ZM8.84229 11.6162C7.05518 11.6162 5.6123 10.1733 5.6123 8.39355C5.6123 6.61377 7.05518 5.1709 8.84229 5.1709C10.6221 5.1709 12.0649 6.61377 12.0649 8.39355C12.0649 10.166 10.6221 11.6162 8.84229 11.6162ZM32.4556 31.9556H26.8965V23.2544C26.8965 21.1816 26.8599 18.5083 24.0034 18.5083C21.1103 18.5083 20.6709 20.7715 20.6709 23.1079V31.9556H15.1191V14.0552H20.4512V16.5015H20.5244C21.2642 15.0952 23.0806 13.6084 25.7832 13.6084C31.4155 13.6084 32.4556 17.3145 32.4556 22.1338V31.9556Z" fill="#404040"/>
</g>
<defs>
<clipPath id="clip0_102_73">
<rect width="37.5" height="37.5" fill="white" transform="translate(0.5)"/>
</clipPath>
</defs>
</svg>
