{
  "accessors": [
    {
      "bufferView": 2,
      "componentType": 5126,
      "count": 36968,
      "max": [
        0.6664404273033142,
        1.0200210809707642,
        1.711567759513855
      ],
      "min": [
        -1.333559513092041,
        -0.9799786806106567,
        -0.2883528470993042
      ],
      "type": "VEC3"
    },
    {
      "bufferView": 2,
      "byteOffset": 443616,
      "componentType": 5126,
      "count": 36968,
      "max": [
        0.9999998807907104,
        1.0,
        1.0
      ],
      "min": [
        -0.9999998807907104,
        -1.0,
        -1.0
      ],
      "type": "VEC3"
    },
    {
      "bufferView": 1,
      "componentType": 5126,
      "count": 36968,
      "max": [
        1.0,
        1.0
      ],
      "min": [
        0.0,
        0.0
      ],
      "type": "VEC2"
    },
    {
      "bufferView": 2,
      "byteOffset": 887232,
      "componentType": 5126,
      "count": 36968,
      "max": [
        0.2275012731552124,
        0.0,
        0.17150980234146118
      ],
      "min": [
        -0.2487439513206482,
        -0.4028092622756958,
        -0.2809755802154541
      ],
      "type": "VEC3"
    },
    {
      "bufferView": 2,
      "byteOffset": 1330848,
      "componentType": 5126,
      "count": 36968,
      "max": [
        5.030632019042969e-05,
        6.92605972290039e-05,
        6.002187728881836e-05
      ],
      "min": [
        -9.429082274436951e-05,
        -7.897615432739258e-05,
        -3.916025161743164e-05
      ],
      "type": "VEC3"
    },
    {
      "bufferView": 2,
      "byteOffset": 1774464,
      "componentType": 5126,
      "count": 36968,
      "max": [
        0.3299664258956909,
        0.0,
        0.27090680599212646
      ],
      "min": [
        -0.30553245544433594,
        -0.34116923809051514,
        -0.22439849376678467
      ],
      "type": "VEC3"
    },
    {
      "bufferView": 2,
      "byteOffset": 2218080,
      "componentType": 5126,
      "count": 36968,
      "max": [
        5.030632019042969e-05,
        6.92605972290039e-05,
        6.002187728881836e-05
      ],
      "min": [
        -0.00013834238052368164,
        -0.00023859739303588867,
        -3.916025161743164e-05
      ],
      "type": "VEC3"
    },
    {
      "bufferView": 2,
      "byteOffset": 2661696,
      "componentType": 5126,
      "count": 36968,
      "max": [
        0.35858166217803955,
        0.0,
        0.3433140516281128
      ],
      "min": [
        -0.3738977909088135,
        -0.25862908363342285,
        -0.420219361782074
      ],
      "type": "VEC3"
    },
    {
      "bufferView": 2,
      "byteOffset": 3105312,
      "componentType": 5126,
      "count": 36968,
      "max": [
        5.030632019042969e-05,
        6.92605972290039e-05,
        6.002187728881836e-05
      ],
      "min": [
        -0.0004914999008178711,
        -0.00042641162872314453,
        -0.0004367232322692871
      ],
      "type": "VEC3"
    },
    {
      "bufferView": 2,
      "byteOffset": 3548928,
      "componentType": 5126,
      "count": 36968,
      "max": [
        0.22249993681907654,
        0.0,
        0.38799095153808594
      ],
      "min": [
        -0.33338165283203125,
        -0.1662231683731079,
        -0.43178170919418335
      ],
      "type": "VEC3"
    },
    {
      "bufferView": 2,
      "byteOffset": 3992544,
      "componentType": 5126,
      "count": 36968,
      "max": [
        5.030632019042969e-05,
        0.0008755624294281006,
        6.002187728881836e-05
      ],
      "min": [
        -9.584426879882813e-05,
        -8.704885840415955e-05,
        -3.916025161743164e-05
      ],
      "type": "VEC3"
    },
    {
      "bufferView": 2,
      "byteOffset": 4436160,
      "componentType": 5126,
      "count": 36968,
      "max": [
        0.43678271770477295,
        0.0,
        0.41953349113464355
      ],
      "min": [
        -0.36286044120788574,
        -0.11866313219070435,
        -0.45828551054000854
      ],
      "type": "VEC3"
    },
    {
      "bufferView": 2,
      "byteOffset": 4879776,
      "componentType": 5126,
      "count": 36968,
      "max": [
        5.030632019042969e-05,
        6.92605972290039e-05,
        3.5822391510009766e-05
      ],
      "min": [
        -0.00011107325553894043,
        -0.00014821812510490417,
        -0.00011259317398071289
      ],
      "type": "VEC3"
    },
    {
      "bufferView": 2,
      "byteOffset": 5323392,
      "componentType": 5126,
      "count": 36968,
      "max": [
        0.49304330348968506,
        0.0,
        0.3776434659957886
      ],
      "min": [
        -0.22123432159423828,
        -0.06504058837890625,
        -0.4566119313240051
      ],
      "type": "VEC3"
    },
    {
      "bufferView": 2,
      "byteOffset": 5767008,
      "componentType": 5126,
      "count": 36968,
      "max": [
        5.030632019042969e-05,
        6.92605972290039e-05,
        6.002187728881836e-05
      ],
      "min": [
        -3.010779619216919e-05,
        -7.897615432739258e-05,
        -3.916025161743164e-05
      ],
      "type": "VEC3"
    },
    {
      "bufferView": 2,
      "byteOffset": 6210624,
      "componentType": 5126,
      "count": 36968,
      "max": [
        0.2501847445964813,
        0.022983074188232422,
        0.45130443572998047
      ],
      "min": [
        -0.4400355815887451,
        -0.005488395690917969,
        -0.4476141333580017
      ],
      "type": "VEC3"
    },
    {
      "bufferView": 2,
      "byteOffset": 6654240,
      "componentType": 5126,
      "count": 36968,
      "max": [
        5.030632019042969e-05,
        0.0006389468908309937,
        0.00010115653276443481
      ],
      "min": [
        -0.0013027451932430267,
        -7.897615432739258e-05,
        -3.916025161743164e-05
      ],
      "type": "VEC3"
    },
    {
      "bufferView": 2,
      "byteOffset": 7097856,
      "componentType": 5126,
      "count": 36968,
      "max": [
        0.4864996671676636,
        0.056548893451690674,
        0.45270347595214844
      ],
      "min": [
        -0.03239798545837402,
        0.0,
        -0.4910814166069031
      ],
      "type": "VEC3"
    },
    {
      "bufferView": 2,
      "byteOffset": 7541472,
      "componentType": 5126,
      "count": 36968,
      "max": [
        5.030632019042969e-05,
        6.92605972290039e-05,
        6.002187728881836e-05
      ],
      "min": [
        -3.5643577575683594e-05,
        -7.897615432739258e-05,
        -6.031990051269531e-05
      ],
      "type": "VEC3"
    },
    {
      "bufferView": 2,
      "byteOffset": 7985088,
      "componentType": 5126,
      "count": 36968,
      "max": [
        0.4569665193557739,
        0.08486247062683105,
        0.4650716781616211
      ],
      "min": [
        -0.3111838102340698,
        0.0,
        -0.4914547801017761
      ],
      "type": "VEC3"
    },
    {
      "bufferView": 2,
      "byteOffset": 8428704,
      "componentType": 5126,
      "count": 36968,
      "max": [
        5.030632019042969e-05,
        0.0002722740173339844,
        0.0014388561248779297
      ],
      "min": [
        -0.000779569149017334,
        -7.897615432739258e-05,
        -3.916025161743164e-05
      ],
      "type": "VEC3"
    },
    {
      "bufferView": 2,
      "byteOffset": 8872320,
      "componentType": 5126,
      "count": 36968,
      "max": [
        0.4387170076370239,
        0.13794779777526855,
        0.4081394672393799
      ],
      "min": [
        -0.408099889755249,
        0.0,
        -0.4798296093940735
      ],
      "type": "VEC3"
    },
    {
      "bufferView": 2,
      "byteOffset": 9315936,
      "componentType": 5126,
      "count": 36968,
      "max": [
        0.0003447532653808594,
        0.011754259467124939,
        0.0009657740592956543
      ],
      "min": [
        -0.002346336841583252,
        -0.002355266362428665,
        -0.019499368965625763
      ],
      "type": "VEC3"
    },
    {
      "bufferView": 2,
      "byteOffset": 9759552,
      "componentType": 5126,
      "count": 36968,
      "max": [
        0.4286452531814575,
        0.2064986228942871,
        0.4184305667877197
      ],
      "min": [
        -0.4530808925628662,
        0.0,
        -0.47075337171554565
      ],
      "type": "VEC3"
    },
    {
      "bufferView": 2,
      "byteOffset": 10203168,
      "componentType": 5126,
      "count": 36968,
      "max": [
        5.030632019042969e-05,
        6.92605972290039e-05,
        6.002187728881836e-05
      ],
      "min": [
        -0.0009143352508544922,
        -0.0006617903709411621,
        -6.67572021484375e-05
      ],
      "type": "VEC3"
    },
    {
      "bufferView": 2,
      "byteOffset": 10646784,
      "componentType": 5126,
      "count": 36968,
      "max": [
        0.3434706926345825,
        0.26253676414489746,
        0.4018317461013794
      ],
      "min": [
        -0.4368525743484497,
        0.0,
        -0.35497361421585083
      ],
      "type": "VEC3"
    },
    {
      "bufferView": 2,
      "byteOffset": 11090400,
      "componentType": 5126,
      "count": 36968,
      "max": [
        5.030632019042969e-05,
        6.92605972290039e-05,
        0.0001499578356742859
      ],
      "min": [
        -3.018975257873535e-05,
        -7.897615432739258e-05,
        -4.526972770690918e-05
      ],
      "type": "VEC3"
    },
    {
      "bufferView": 2,
      "byteOffset": 11534016,
      "componentType": 5126,
      "count": 36968,
      "max": [
        0.37492167949676514,
        0.3286612033843994,
        0.3093698024749756
      ],
      "min": [
        -0.3936504125595093,
        0.0,
        -0.33239203691482544
      ],
      "type": "VEC3"
    },
    {
      "bufferView": 2,
      "byteOffset": 11977632,
      "componentType": 5126,
      "count": 36968,
      "max": [
        5.030632019042969e-05,
        7.354468107223511e-05,
        6.002187728881836e-05
      ],
      "min": [
        -5.555152893066406e-05,
        -7.897615432739258e-05,
        -3.916025161743164e-05
      ],
      "type": "VEC3"
    },
    {
      "bufferView": 2,
      "byteOffset": 12421248,
      "componentType": 5126,
      "count": 36968,
      "max": [
        0.33288830518722534,
        0.3870973587036133,
        0.35215556621551514
      ],
      "min": [
        -0.24523484706878662,
        0.0,
        -0.33239203691482544
      ],
      "type": "VEC3"
    },
    {
      "bufferView": 2,
      "byteOffset": 12864864,
      "componentType": 5126,
      "count": 36968,
      "max": [
        0.0021842345595359802,
        6.92605972290039e-05,
        0.00010657310485839844
      ],
      "min": [
        -3.010779619216919e-05,
        -7.897615432739258e-05,
        -3.916025161743164e-05
      ],
      "type": "VEC3"
    },
    {
      "bufferView": 2,
      "byteOffset": 13308480,
      "componentType": 5126,
      "count": 36968,
      "max": [
        0.2946201264858246,
        0.41328954696655273,
        0.3131682872772217
      ],
      "min": [
        -0.20542752742767334,
        0.0,
        -0.2411653995513916
      ],
      "type": "VEC3"
    },
    {
      "bufferView": 2,
      "byteOffset": 13752096,
      "componentType": 5126,
      "count": 36968,
      "max": [
        5.030632019042969e-05,
        6.92605972290039e-05,
        6.002187728881836e-05
      ],
      "min": [
        -0.00013042986392974854,
        -7.897615432739258e-05,
        -3.916025161743164e-05
      ],
      "type": "VEC3"
    },
    {
      "bufferView": 2,
      "byteOffset": 14195712,
      "componentType": 5126,
      "count": 36968,
      "max": [
        0.20709630846977234,
        0.4305577278137207,
        0.23224639892578125
      ],
      "min": [
        -0.2651262879371643,
        0.0,
        -0.19123613834381104
      ],
      "type": "VEC3"
    },
    {
      "bufferView": 2,
      "byteOffset": 14639328,
      "componentType": 5126,
      "count": 36968,
      "max": [
        6.2599778175354e-05,
        6.92605972290039e-05,
        6.002187728881836e-05
      ],
      "min": [
        -4.2811036109924316e-05,
        -7.897615432739258e-05,
        -3.916025161743164e-05
      ],
      "type": "VEC3"
    },
    {
      "bufferView": 2,
      "byteOffset": 15082944,
      "componentType": 5126,
      "count": 36968,
      "max": [
        0.09027551114559174,
        0.4420902729034424,
        0.25893402099609375
      ],
      "min": [
        -0.26289743185043335,
        0.0,
        -0.21456313133239746
      ],
      "type": "VEC3"
    },
    {
      "bufferView": 2,
      "byteOffset": 15526560,
      "componentType": 5126,
      "count": 36968,
      "max": [
        5.030632019042969e-05,
        6.92605972290039e-05,
        6.002187728881836e-05
      ],
      "min": [
        -9.489059448242188e-05,
        -7.897615432739258e-05,
        -3.916025161743164e-05
      ],
      "type": "VEC3"
    },
    {
      "bufferView": 2,
      "byteOffset": 15970176,
      "componentType": 5126,
      "count": 36968,
      "max": [
        0.16348552703857422,
        0.46056604385375977,
        0.2264493703842163
      ],
      "min": [
        -0.2152423858642578,
        0.0,
        -0.089194655418396
      ],
      "type": "VEC3"
    },
    {
      "bufferView": 2,
      "byteOffset": 16413792,
      "componentType": 5126,
      "count": 36968,
      "max": [
        5.426257848739624e-05,
        6.92605972290039e-05,
        6.002187728881836e-05
      ],
      "min": [
        -3.714859485626221e-05,
        -7.897615432739258e-05,
        -3.0316412448883057e-05
      ],
      "type": "VEC3"
    },
    {
      "bufferView": 2,
      "byteOffset": 16857408,
      "componentType": 5126,
      "count": 36968,
      "max": [
        0.13033007085323334,
        0.4813075065612793,
        0.17229974269866943
      ],
      "min": [
        -0.2211226224899292,
        0.0,
        -0.15884482860565186
      ],
      "type": "VEC3"
    },
    {
      "bufferView": 2,
      "byteOffset": 17301024,
      "componentType": 5126,
      "count": 36968,
      "max": [
        5.030632019042969e-05,
        6.92605972290039e-05,
        6.002187728881836e-05
      ],
      "min": [
        -3.0115246772766113e-05,
        -7.897615432739258e-05,
        -3.916025161743164e-05
      ],
      "type": "VEC3"
    },
    {
      "bufferView": 2,
      "byteOffset": 17744640,
      "componentType": 5126,
      "count": 36968,
      "max": [
        0.07818292081356049,
        0.5071556568145752,
        0.10573887825012207
      ],
      "min": [
        -0.11753571033477783,
        0.0,
        -0.12413239479064941
      ],
      "type": "VEC3"
    },
    {
      "bufferView": 2,
      "byteOffset": 18188256,
      "componentType": 5126,
      "count": 36968,
      "max": [
        5.030632019042969e-05,
        6.92605972290039e-05,
        6.002187728881836e-05
      ],
      "min": [
        -6.289593875408173e-05,
        -7.897615432739258e-05,
        -3.916025161743164e-05
      ],
      "type": "VEC3"
    },
    {
      "bufferView": 0,
      "componentType": 5125,
      "count": 100056,
      "type": "SCALAR"
    },
    {
      "bufferView": 2,
      "byteOffset": 18631872,
      "componentType": 5126,
      "count": 674,
      "max": [
        0.9231224656105042,
        0.9303051233291626,
        0.9248635768890381
      ],
      "min": [
        -0.9231224656105042,
        -0.9303051233291626,
        -0.9248635768890381
      ],
      "type": "VEC3"
    },
    {
      "bufferView": 2,
      "byteOffset": 18639960,
      "componentType": 5126,
      "count": 674,
      "max": [
        0.9995893239974976,
        1.0,
        1.0
      ],
      "min": [
        -0.9995893239974976,
        -1.0,
        -1.0
      ],
      "type": "VEC3"
    },
    {
      "bufferView": 1,
      "byteOffset": 295744,
      "componentType": 5126,
      "count": 674,
      "max": [
        0.9848484396934509,
        1.0
      ],
      "min": [
        0.015151501633226871,
        0.5276179313659668
      ],
      "type": "VEC2"
    },
    {
      "bufferView": 0,
      "byteOffset": 400224,
      "componentType": 5125,
      "count": 1440,
      "type": "SCALAR"
    },
    {
      "bufferView": 3,
      "componentType": 5126,
      "count": 233,
      "max": [
        3.866666555404663
      ],
      "min": [
        0.0
      ],
      "type": "SCALAR"
    },
    {
      "bufferView": 3,
      "byteOffset": 932,
      "componentType": 5126,
      "count": 4660,
      "max": [
        1.5
      ],
      "min": [
        2.2048942582841846e-07
      ],
      "type": "SCALAR"
    }
  ],
  "animations": [
    {
      "channels": [
        {
          "sampler": 0,
          "target": {
            "node": 4,
            "path": "weights"
          }
        }
      ],
      "name": "visualization",
      "samplers": [
        {
          "input": 48,
          "interpolation": "LINEAR",
          "output": 49
        }
      ]
    }
  ],
  "asset": {
    "extras": {
      "author": "Loïc Norgeot (https://sketchfab.com/norgeotloic)",
      "license": "CC-BY-4.0 (http://creativecommons.org/licenses/by/4.0/)",
      "source": "https://sketchfab.com/3d-models/through-the-grapevine-9fda6e6e6eab443490179536c51d8e62",
      "title": "Through the Grapevine"
    },
    "generator": "Sketchfab-12.62.1",
    "version": "2.0"
  },
  "bufferViews": [
    {
      "buffer": 0,
      "byteLength": 405984,
      "name": "floatBufferViews",
      "target": 34963
    },
    {
      "buffer": 0,
      "byteLength": 301136,
      "byteOffset": 405984,
      "byteStride": 8,
      "name": "floatBufferViews",
      "target": 34962
    },
    {
      "buffer": 0,
      "byteLength": 18648048,
      "byteOffset": 707120,
      "byteStride": 12,
      "name": "floatBufferViews",
      "target": 34962
    },
    {
      "buffer": 0,
      "byteLength": 19572,
      "byteOffset": 19355168,
      "name": "floatBufferViews"
    }
  ],
  "buffers": [
    {
      "byteLength": 19374740,
      "uri": "scene.bin"
    }
  ],
  "extensionsUsed": [
    "KHR_materials_clearcoat"
  ],
  "materials": [
    {
      "doubleSided": true,
      "extensions": {
        "KHR_materials_clearcoat": {
          "clearcoatFactor": 1.0,
          "clearcoatRoughnessFactor": 0.2578125
        }
      },
      "name": "mesh_0",
      "pbrMetallicRoughness": {
        "baseColorFactor": [
          0.05480983646923671,
          0.5259747095201842,
          0.07704083268481715,
          1.0
        ],
        "roughnessFactor": 0.19683689024390244
      }
    },
    {
      "doubleSided": true,
      "emissiveFactor": [
        1.0,
        0.0,
        0.0
      ],
      "name": "emissive",
      "pbrMetallicRoughness": {
        "baseColorFactor": [
          0.8648245820318257,
          1.0,
          0.0,
          1.0
        ],
        "roughnessFactor": 0.20903201219512196
      }
    }
  ],
  "meshes": [
    {
      "name": "mesh_0",
      "primitives": [
        {
          "attributes": {
            "NORMAL": 1,
            "POSITION": 0,
            "TEXCOORD_0": 2
          },
          "indices": 43,
          "material": 0,
          "mode": 4,
          "targets": [
            {
              "NORMAL": 4,
              "POSITION": 3
            },
            {
              "NORMAL": 6,
              "POSITION": 5
            },
            {
              "NORMAL": 8,
              "POSITION": 7
            },
            {
              "NORMAL": 10,
              "POSITION": 9
            },
            {
              "NORMAL": 12,
              "POSITION": 11
            },
            {
              "NORMAL": 14,
              "POSITION": 13
            },
            {
              "NORMAL": 16,
              "POSITION": 15
            },
            {
              "NORMAL": 18,
              "POSITION": 17
            },
            {
              "NORMAL": 20,
              "POSITION": 19
            },
            {
              "NORMAL": 22,
              "POSITION": 21
            },
            {
              "NORMAL": 24,
              "POSITION": 23
            },
            {
              "NORMAL": 26,
              "POSITION": 25
            },
            {
              "NORMAL": 28,
              "POSITION": 27
            },
            {
              "NORMAL": 30,
              "POSITION": 29
            },
            {
              "NORMAL": 32,
              "POSITION": 31
            },
            {
              "NORMAL": 34,
              "POSITION": 33
            },
            {
              "NORMAL": 36,
              "POSITION": 35
            },
            {
              "NORMAL": 38,
              "POSITION": 37
            },
            {
              "NORMAL": 40,
              "POSITION": 39
            },
            {
              "NORMAL": 42,
              "POSITION": 41
            }
          ]
        }
      ],
      "weights": [
        0.0,
        0.0,
        0.0,
        0.0,
        0.0,
        0.0,
        0.0,
        0.0,
        0.0,
        0.0,
        0.0,
        0.0,
        0.0,
        0.0,
        0.0,
        0.0,
        0.0,
        0.0,
        0.0,
        0.0
      ]
    },
    {
      "name": "Object_1",
      "primitives": [
        {
          "attributes": {
            "NORMAL": 45,
            "POSITION": 44,
            "TEXCOORD_0": 46
          },
          "indices": 47,
          "material": 1,
          "mode": 4
        }
      ]
    }
  ],
  "nodes": [
    {
      "children": [
        1
      ],
      "matrix": [
        1.0780502557754517,
        0.0,
        0.0,
        0.0,
        0.0,
        2.393752431329891e-16,
        -1.0780502557754517,
        0.0,
        0.0,
        1.0780502557754517,
        2.393752431329891e-16,
        0.0,
        0.0,
        0.0,
        0.0,
        1.0
      ],
      "name": "Sketchfab_model"
    },
    {
      "children": [
        2
      ],
      "name": "root"
    },
    {
      "children": [
        3,
        5
      ],
      "matrix": [
        1.0,
        0.0,
        0.0,
        0.0,
        0.0,
        2.220446049250313e-16,
        1.0,
        0.0,
        0.0,
        -1.0,
        2.220446049250313e-16,
        0.0,
        0.0,
        0.0,
        0.0,
        1.0
      ],
      "name": "GLTF_SceneRootNode"
    },
    {
      "children": [
        4
      ],
      "name": "Analysis_0",
      "translation": [
        0.3538917303085327,
        0.02679312229156494,
        -0.7151378393173218
      ]
    },
    {
      "mesh": 0,
      "name": "mesh_0"
    },
    {
      "children": [
        6
      ],
      "matrix": [
        0.7078595757484436,
        0.0,
        0.0,
        0.0,
        0.0,
        0.7078595757484436,
        0.0,
        0.0,
        0.0,
        0.0,
        0.7078595757484436,
        0.0,
        0.0,
        0.0,
        0.0,
        1.0
      ],
      "name": "Icosphere_1"
    },
    {
      "mesh": 1,
      "name": "Object_6"
    }
  ],
  "scene": 0,
  "scenes": [
    {
      "name": "Sketchfab_Scene",
      "nodes": [
        0
      ]
    }
  ]
}
